<?xml version="1.0" encoding="UTF-8" standalone="no"?>
<svg
   xmlns:dc="http://purl.org/dc/elements/1.1/"
   xmlns:cc="http://creativecommons.org/ns#"
   xmlns:rdf="http://www.w3.org/1999/02/22-rdf-syntax-ns#"
   xmlns:svg="http://www.w3.org/2000/svg"
   xmlns="http://www.w3.org/2000/svg"
   viewBox="0 0 541.33331 141.33333"
   height="141.33333"
   width="541.33331"
   xml:space="preserve"
   id="svg2"
   version="1.1"><metadata
     id="metadata8"><rdf:RDF><cc:Work
         rdf:about=""><dc:format>image/svg+xml</dc:format><dc:type
           rdf:resource="http://purl.org/dc/dcmitype/StillImage" /></cc:Work></rdf:RDF></metadata><defs
     id="defs6"><clipPath
       id="clipPath18"
       clipPathUnits="userSpaceOnUse"><path
         id="path16"
         d="M 0,106 H 406 V 0 H 0 Z" /></clipPath><clipPath
       id="clipPath186"
       clipPathUnits="userSpaceOnUse"><path
         id="path184"
         d="m 233.649,99.715 h -77.926 -0.047 V 49.144 c 0,-18.451 19.749,-34.048 38.231,-42.489 v 0 l 0.802,-0.366 0.01,-0.003 0.802,0.392 c 18.858,9.182 38.14,21.413 38.14,42.466 v 0 50.571 z" /></clipPath><clipPath
       id="clipPath202"
       clipPathUnits="userSpaceOnUse"><path
         id="path200"
         d="M 0,106 H 406 V 0 H 0 Z" /></clipPath></defs><g
     transform="matrix(1.3333333,0,0,-1.3333333,0,141.33333)"
     id="g10"><g
       id="g12"><g
         clip-path="url(#clipPath18)"
         id="g14"><g
           transform="translate(138.417,43.6836)"
           id="g20"><path
             id="path22"
             style="fill:#414142;fill-opacity:1;fill-rule:nonzero;stroke:none"
             d="m 0,0 c 0,0.903 -0.183,1.626 -0.528,2.169 -0.446,0.662 -1.096,0.983 -1.948,0.983 -0.933,0 -1.624,-0.361 -2.09,-1.064 -0.386,-0.582 -0.589,-1.345 -0.589,-2.329 0,-0.905 0.203,-1.648 0.589,-2.209 C -4.1,-3.113 -3.43,-3.435 -2.557,-3.435 -0.853,-3.435 0,-2.29 0,0 m 1.644,-0.142 c 0,-1.304 -0.366,-2.369 -1.096,-3.212 -0.771,-0.904 -1.806,-1.345 -3.105,-1.345 -1.563,0 -2.74,0.582 -3.511,1.747 h -3.917 v 1.405 h 3.328 c -0.121,0.422 -0.182,0.884 -0.182,1.386 0,1.325 0.385,2.409 1.156,3.273 0.772,0.865 1.827,1.285 3.146,1.285 1.319,0 2.374,-0.441 3.125,-1.304 0.711,-0.824 1.056,-1.908 1.056,-3.235" /></g><path
           id="path24"
           style="fill:#0033a1;fill-opacity:1;fill-rule:nonzero;stroke:none"
           d="m 102.415,64.757 h 5.802 v 5.61 h -5.802 z" /><path
           id="path26"
           style="fill:#0033a1;fill-opacity:1;fill-rule:nonzero;stroke:none"
           d="m 94.263,64.757 h 5.802 v 5.61 h -5.802 z" /><g
           transform="translate(75.7505,74.7314)"
           id="g28"><path
             id="path30"
             style="fill:#0033a1;fill-opacity:1;fill-rule:nonzero;stroke:none"
             d="m 0,0 c -2.445,0 -3.165,2.11 -3.165,4.076 0,1.919 0.72,4.077 3.165,4.077 2.446,0 3.213,-2.158 3.213,-4.077 C 3.213,2.11 2.446,0 0,0 m 49.779,17.648 c -5.178,0 -8.296,-2.494 -9.112,-3.357 l 2.639,-4.748 c 0,0 2.397,2.159 6.473,2.159 3.453,0 6.379,-2.35 7.482,-6.283 H 36.64 35.776 32.083 c -1.15,0 -3.356,1.247 -3.404,4.268 -0.049,2.59 -0.049,5.419 -0.096,8.009 h -6.714 l 0.095,-9.831 c 0,-1.679 -1.774,-2.446 -3.068,-2.446 H 13.285 9.688 C 9.16,10.023 5.899,13.428 0,13.428 c -5.851,0 -9.16,-3.405 -9.687,-8.009 h -3.311 -4.124 c -1.15,0 -3.357,1.247 -3.452,4.268 v 0.048 c -0.049,2.494 -0.049,3.837 -0.049,7.913 l -6.761,0.048 c 0.096,-5.372 0.096,-5.803 0.096,-10.359 0,-1.678 -0.816,-2.254 -2.11,-2.254 -1.871,0 -3.645,1.151 -3.645,4.172 0,0 -0.096,4.317 -0.144,7.098 h -6.714 c 0.048,-2.877 0.096,-6.138 0.096,-9.016 0,-1.678 -0.815,-2.254 -2.158,-2.254 -1.774,0 -3.405,1.008 -3.644,3.645 -0.048,4.556 0,5.611 0,7.577 h -6.762 l 0.191,-13.907 c 0.096,-3.885 -3.117,-7.05 -6.905,-7.05 -3.741,0 -6.858,3.117 -6.906,7.002 0,1.055 -0.048,7.385 -0.096,9.974 h -6.665 c 0,-2.925 0.191,-8.535 0.191,-9.926 0,-7.337 5.995,-13.428 13.524,-13.428 6.762,0 12.42,4.988 13.38,11.366 1.582,-1.056 3.357,-1.295 4.891,-1.295 2.542,0.096 4.7,0.863 6.139,2.733 1.917,-2.349 4.412,-2.733 6.426,-2.733 2.541,0.096 4.747,0.911 6.042,2.686 0.911,-1.056 2.398,-2.302 4.604,-2.302 h 3.598 0.957 4.27 c 1.439,-2.83 4.413,-4.7 8.728,-4.7 4.364,0 7.29,1.87 8.728,4.7 h 4.557 c 2.685,0 4.843,-0.048 7.529,0 2.302,0 4.603,1.007 5.946,2.829 0.768,-1.199 2.35,-2.829 4.94,-2.829 h 4.076 0.864 27.67 C 64.263,7.913 60.186,17.648 49.779,17.648" /></g><path
           id="path32"
           style="fill:#0033a1;fill-opacity:1;fill-rule:nonzero;stroke:none"
           d="m 123.66,64.853 h 5.802 v 5.515 h -5.802 z" /><path
           id="path34"
           style="fill:#414142;fill-opacity:1;fill-rule:nonzero;stroke:none"
           d="M 9.049,51.294 H 7.608 v 1.707 H 9.049 Z M 9.028,49.849 v -7.411 c 0,-3.273 -1.278,-4.84 -4.262,-5 v 1.345 c 1.888,0 2.841,1.025 2.841,3.394 v 7.672 z" /><g
           transform="translate(14.832,49.8486)"
           id="g36"><path
             id="path38"
             style="fill:#414142;fill-opacity:1;fill-rule:nonzero;stroke:none"
             d="m 0,0 v -7.41 c 0,-3.274 -1.278,-4.841 -4.262,-5.001 v 1.346 c 1.887,0 2.841,1.024 2.841,3.393 l 0,7.672 z" /></g><g
           transform="translate(28.5508,40.7314)"
           id="g40"><path
             id="path42"
             style="fill:#414142;fill-opacity:1;fill-rule:nonzero;stroke:none"
             d="m 0,0 h -12.197 v 1.405 h 7.509 c 0,1.787 -0.325,3.234 -0.995,4.319 -0.812,1.304 -2.07,1.987 -3.754,2.088 h -0.548 v 1.325 c 4.282,0 6.535,-2.571 6.758,-7.732 l 3.227,0 z" /></g><path
           id="path44"
           style="fill:#414142;fill-opacity:1;fill-rule:nonzero;stroke:none"
           d="m 32.873,51.294 h -1.441 v 1.707 h 1.441 z m 0,-1.445 v -5.583 c 0,-2.35 -0.995,-3.535 -2.983,-3.535 h -1.766 v 1.386 h 1.298 c 0.873,0 1.441,0.28 1.725,0.843 0.203,0.361 0.305,1.005 0.305,1.929 v 4.96 z" /><g
           transform="translate(41.3149,45.4307)"
           id="g46"><path
             id="path48"
             style="fill:#414142;fill-opacity:1;fill-rule:nonzero;stroke:none"
             d="m 0,0 c 0,1.807 -1.015,3.233 -2.517,3.233 -1.482,0 -2.395,-1.406 -2.395,-3.153 0,-1.828 1.016,-3.213 2.496,-3.213 C -0.934,-3.133 0,-1.748 0,0 m 1.38,0 v -2.992 c 0,-3.274 -1.299,-4.841 -4.283,-5.001 v 1.346 c 1.868,0 2.821,1.125 2.862,3.393 -0.446,-0.763 -1.238,-1.144 -2.395,-1.144 -2.232,0 -3.876,1.847 -3.876,4.458 0,2.57 1.562,4.418 3.876,4.418 C -0.224,4.478 1.38,2.61 1.38,0" /></g><g
           transform="translate(49.8784,40.7314)"
           id="g50"><path
             id="path52"
             style="fill:#414142;fill-opacity:1;fill-rule:nonzero;stroke:none"
             d="m 0,0 h -1.604 c -0.73,0 -1.339,0.261 -1.846,0.763 -0.589,0.562 -0.873,1.366 -0.873,2.429 v 9.801 h 1.461 V 4.036 C -2.862,3.112 -2.72,2.45 -2.456,2.048 -2.233,1.707 -1.847,1.506 -1.299,1.426 -1.157,1.405 -0.995,1.405 0,1.405 Z" /></g><path
           id="path54"
           style="fill:#414142;fill-opacity:1;fill-rule:nonzero;stroke:none"
           d="m 57.366,51.294 h -1.461 v 1.707 h 1.461 z m 1.908,-5.863 c 0,2.007 -0.913,3.233 -2.578,3.233 -1.806,0 -2.739,-1.346 -2.739,-3.475 0,-2.007 0.994,-3.293 2.658,-3.293 1.766,0 2.659,1.185 2.659,3.535 m 1.562,-0.142 c 0,-2.609 -1.664,-4.558 -4.221,-4.558 h -7.204 v 1.406 h 3.957 c -0.67,0.803 -1.015,1.847 -1.015,3.133 0,2.61 1.644,4.558 4.283,4.558 2.577,0 4.2,-1.807 4.2,-4.539" /><path
           id="path56"
           style="fill:#414142;fill-opacity:1;fill-rule:nonzero;stroke:none"
           d="m 73.195,53.222 h -1.44 v 1.707 h 1.44 z m -2.658,0 h -1.441 v 1.707 h 1.441 z m 2.13,-6.065 v 3.555 H 70.09 c -1.603,0 -2.699,-1.627 -2.699,-3.735 0,-2.048 1.075,-3.755 2.658,-3.755 1.705,0 2.578,1.305 2.618,3.935 m 4.831,-6.426 h -0.934 c -2.009,0 -3.288,0.984 -3.876,2.932 -0.609,-1.024 -1.645,-1.546 -3.106,-1.546 -2.069,0 -3.612,2.109 -3.612,4.779 0,2.852 1.543,4.861 3.856,4.861 h 4.302 V 45.31 c 0,-2.008 0.955,-3.193 2.598,-3.193 h 0.772 z" /><path
           id="path58"
           style="fill:#414142;fill-opacity:1;fill-rule:nonzero;stroke:none"
           d="m 81.474,40.731 h -4.282 v 1.405 h 4.282 z" /><path
           id="path60"
           style="fill:#414142;fill-opacity:1;fill-rule:nonzero;stroke:none"
           d="M 85.492,40.731 H 81.21 v 1.405 h 4.282 z" /><g
           transform="translate(101.4844,49.8486)"
           id="g62"><path
             id="path64"
             style="fill:#414142;fill-opacity:1;fill-rule:nonzero;stroke:none"
             d="m 0,0 v -5.583 c 0,-2.35 -0.994,-3.534 -3.003,-3.534 h -13.435 v 1.405 h 1.886 c 1.3,0 2.01,0.864 2.152,2.571 V 0 h 1.421 v -5.583 c 0,-0.823 -0.123,-1.507 -0.346,-2.049 v -0.08 h 2.659 c 1.299,0 1.725,0.622 1.725,2.752 V 0 h 1.42 v -5.583 c 0,-0.863 -0.121,-1.587 -0.385,-2.129 h 2.436 c 1.522,0 2.029,0.622 2.029,2.752 l 0,4.96 z" /></g><g
           transform="translate(107.2666,49.8486)"
           id="g66"><path
             id="path68"
             style="fill:#414142;fill-opacity:1;fill-rule:nonzero;stroke:none"
             d="m 0,0 v -7.41 c 0,-3.274 -1.278,-4.841 -4.262,-5.001 v 1.346 c 1.887,0 2.842,1.024 2.842,3.393 l 0,7.672 z" /></g><g
           transform="translate(120.9858,40.7314)"
           id="g70"><path
             id="path72"
             style="fill:#414142;fill-opacity:1;fill-rule:nonzero;stroke:none"
             d="m 0,0 h -12.198 v 1.405 h 7.51 c 0,1.787 -0.325,3.234 -0.995,4.319 -0.812,1.304 -2.07,1.987 -3.755,2.088 h -0.547 v 1.325 c 4.282,0 6.534,-2.571 6.758,-7.732 l 3.227,0 z" /></g><path
           id="path74"
           style="fill:#414142;fill-opacity:1;fill-rule:nonzero;stroke:none"
           d="m 124.901,40.731 h -4.282 v 1.405 h 4.282 z" /><path
           id="path76"
           style="fill:#414142;fill-opacity:1;fill-rule:nonzero;stroke:none"
           d="m 128.919,40.731 h -4.282 v 1.405 h 4.282 z" /><g
           transform="translate(122.8623,13.3096)"
           id="g78"><path
             id="path80"
             style="fill:#414142;fill-opacity:1;fill-rule:nonzero;stroke:none"
             d="m 0,0 h -1.143 l -0.261,1.284 h 1.142 z M -2.107,0 H -3.25 l -0.261,1.284 h 1.142 z M 5.601,4.882 H 5.359 C 3.88,4.882 2.578,5.668 1.944,6.968 2.457,4.443 0.485,2.433 -2.249,2.433 c -2.959,0 -5.691,2.358 -6.306,5.38 l -0.308,1.513 h 1.142 l 0.268,-1.315 c 0.554,-2.722 2.48,-4.52 5.037,-4.52 2.155,0 3.693,1.693 3.324,3.507 -0.277,1.36 -1.191,2.056 -2.51,2.056 l -0.193,0.952 h -0.016 c -0.003,0.015 0.283,0.03 0.862,0.03 0.981,0 2.526,-0.952 3.271,-2.161 0.89,-1.451 1.519,-1.936 2.726,-1.936 h 0.338 z" /></g><g
           transform="translate(132.4858,15.8936)"
           id="g82"><path
             id="path84"
             style="fill:#414142;fill-opacity:1;fill-rule:nonzero;stroke:none"
             d="m 0,0 h -1.143 l -0.261,1.284 h 1.143 z m -1.864,9.16 0.855,-4.202 c 0.36,-1.769 -0.246,-2.66 -1.823,-2.66 h -1.416 l -0.211,1.043 h 1.045 c 0.691,0 1.099,0.212 1.238,0.635 0.105,0.271 0.088,0.755 -0.054,1.451 L -2.99,9.16 Z" /></g><g
           transform="translate(140.0605,18.1914)"
           id="g86"><path
             id="path88"
             style="fill:#414142;fill-opacity:1;fill-rule:nonzero;stroke:none"
             d="m 0,0 h -7.142 l -0.215,1.058 h 5.952 C -1.679,2.403 -2.158,3.491 -2.855,4.308 -3.699,5.29 -4.8,5.805 -6.15,5.88 h -0.434 l -0.204,0.998 c 2.268,0 4.001,-0.847 5.165,-2.54 C -0.918,3.325 -0.384,1.89 0,0" /></g><g
           transform="translate(309.8291,72.2368)"
           id="g90"><path
             id="path92"
             style="fill:#0033a1;fill-opacity:1;fill-rule:nonzero;stroke:none"
             d="m 0,0 v -4.671 c 0,-1.778 -1.447,-3.222 -3.226,-3.222 h -17.838 c -3.742,0 -6.784,3.042 -6.784,6.781 v 14.283 c 0,3.738 3.042,6.781 6.784,6.781 H 0 v -4.673 c 0,-1.776 -1.447,-3.223 -3.226,-3.223 h -15.471 c -0.691,0 -1.252,-0.562 -1.252,-1.252 V 9.551 L 0,9.551 V 5.732 C 0,3.952 -1.447,2.507 -3.226,2.507 H -19.949 V 1.252 C -19.949,0.564 -19.388,0 -18.697,0 Z" /></g><g
           transform="translate(372.1426,78.5635)"
           id="g94"><path
             id="path96"
             style="fill:#0033a1;fill-opacity:1;fill-rule:nonzero;stroke:none"
             d="m 0,0 v -7.442 c 0,-3.738 -3.043,-6.778 -6.783,-6.778 h -21.063 v 4.67 c 0,1.776 1.446,3.223 3.223,3.223 h 15.475 c 0.691,0 1.252,0.562 1.252,1.252 v 1.255 h -16.727 c -1.777,0 -3.223,1.445 -3.223,3.225 v 7.439 c 0,3.739 3.043,6.781 6.782,6.781 H 0 V 8.952 C 0,7.174 -1.444,5.729 -3.223,5.729 h -15.474 c -0.691,0 -1.252,-0.562 -1.252,-1.251 V 3.225 H -3.223 C -1.444,3.225 0,1.777 0,0" /></g><g
           transform="translate(340.9678,92.1885)"
           id="g98"><path
             id="path100"
             style="fill:#0033a1;fill-opacity:1;fill-rule:nonzero;stroke:none"
             d="m 0,0 v -24.623 c -0.002,-1.777 -1.45,-3.222 -3.228,-3.222 h -4.67 V -7.896 H -9.15 c -0.691,0 -1.252,-0.561 -1.252,-1.251 V -24.62 c 0,-1.78 -1.448,-3.225 -3.226,-3.225 h -3.822 v 19.949 h -1.252 c -0.688,0 -1.249,-0.561 -1.249,-1.251 v -15.476 c 0,-1.777 -1.448,-3.222 -3.226,-3.222 h -4.673 v 21.064 c 0,3.739 3.045,6.781 6.787,6.781 z" /></g><g
           transform="translate(278.6895,78.5635)"
           id="g102"><path
             id="path104"
             style="fill:#0033a1;fill-opacity:1;fill-rule:nonzero;stroke:none"
             d="m 0,0 v -10.998 c 0,-1.777 -1.444,-3.222 -3.222,-3.222 h -17.841 c -3.739,0 -6.782,3.043 -6.782,6.781 V 6.844 c 0,3.739 3.043,6.781 6.782,6.781 H 0 V 8.952 C 0,7.177 -1.444,5.729 -3.222,5.729 H -16.04 c -2.153,0 -3.908,-1.754 -3.908,-3.911 v -6.893 c 0,-0.688 0.563,-1.252 1.252,-1.252 h 9.549 c 0.691,0 1.254,0.564 1.254,1.252 v 1.255 h -9.551 V 0 c 0,1.777 1.447,3.222 3.225,3.225 H -3.222 C -1.444,3.225 0,1.777 0,0" /></g><g
           transform="translate(251.6113,51.8555)"
           id="g106"><path
             id="path108"
             style="fill:#414142;fill-opacity:1;fill-rule:nonzero;stroke:none"
             d="M 0,0 C 0,1.398 0.919,2.295 2.338,2.295 H 9.559 V 0.751 H 2.338 C 1.857,0.751 1.586,0.458 1.586,0 V -4.758 H 9.142 V -6.303 H 1.586 v -7.45 H 0 Z" /></g><g
           transform="translate(270.624,43.7158)"
           id="g110"><path
             id="path112"
             style="fill:#414142;fill-opacity:1;fill-rule:nonzero;stroke:none"
             d="m 0,0 c 0,2.046 -0.855,4.258 -3.131,4.258 -2.254,0 -3.13,-2.212 -3.13,-4.258 0,-2.045 0.876,-4.257 3.13,-4.257 C -0.855,-4.257 0,-2.045 0,0 m -7.784,0 c 0,2.922 1.356,5.739 4.653,5.739 3.318,0 4.653,-2.817 4.653,-5.739 0,-2.921 -1.335,-5.738 -4.653,-5.738 -3.297,0 -4.653,2.817 -4.653,5.738" /></g><g
           transform="translate(275.9658,49.3301)"
           id="g114"><path
             id="path116"
             style="fill:#414142;fill-opacity:1;fill-rule:nonzero;stroke:none"
             d="m 0,0 v -7.138 c 0,-1.294 1.002,-2.733 2.755,-2.733 1.398,0 2.546,1.043 2.546,1.043 V 0 h 1.523 v -9.245 c 0,0 -1.314,-2.108 -4.069,-2.108 -2.817,0 -4.278,2.191 -4.278,4.215 l 0,7.138 z" /></g><g
           transform="translate(292.1191,38.1025)"
           id="g118"><path
             id="path120"
             style="fill:#414142;fill-opacity:1;fill-rule:nonzero;stroke:none"
             d="m 0,0 v 7.137 c 0,1.294 -1.001,2.734 -2.755,2.734 -1.398,0 -2.546,-1.044 -2.546,-1.044 V 0 h -1.523 v 9.245 c 0,0 1.315,2.108 4.069,2.108 2.817,0 4.278,-2.192 4.278,-4.216 L 1.523,0 Z" /></g><g
           transform="translate(297.4619,43.7158)"
           id="g122"><path
             id="path124"
             style="fill:#414142;fill-opacity:1;fill-rule:nonzero;stroke:none"
             d="m 0,0 c 0,-2.045 0.855,-4.257 3.131,-4.257 2.254,0 3.13,2.212 3.13,4.257 0,2.046 -0.876,4.258 -3.13,4.258 C 0.855,4.258 0,2.046 0,0 m -1.523,0 c 0,2.922 1.336,5.739 4.654,5.739 1.586,0 2.775,-1.085 3.13,-1.753 v 6.449 H 7.784 V -5.614 H 6.261 v 1.628 c -0.355,-0.667 -1.544,-1.752 -3.13,-1.752 -3.318,0 -4.654,2.817 -4.654,5.738" /></g><g
           transform="translate(309.1074,44.3428)"
           id="g126"><path
             id="path128"
             style="fill:#414142;fill-opacity:1;fill-rule:nonzero;stroke:none"
             d="M 0,0 H 5.655 C 5.78,0 5.822,0.041 5.822,0.166 5.822,1.544 5.196,3.631 2.984,3.631 0.918,3.631 0.146,1.814 0,0 m -1.565,-0.627 c 0,2.922 1.273,5.739 4.549,5.739 3.297,0 4.383,-2.838 4.383,-4.925 0,-1.21 -0.543,-1.669 -1.712,-1.669 H 0.021 c 0.062,-1.711 1.001,-3.402 3.402,-3.402 1.022,0 1.982,0.292 2.858,0.856 l 0.794,-1.21 C 5.78,-6.157 4.466,-6.365 3.423,-6.365 c -3.819,0 -4.988,2.9 -4.988,5.738" /></g><g
           transform="translate(324.4053,47.5146)"
           id="g130"><path
             id="path132"
             style="fill:#414142;fill-opacity:1;fill-rule:nonzero;stroke:none"
             d="m 0,0 c -0.501,0.312 -1.044,0.459 -1.565,0.459 -1.399,0 -2.546,-1.044 -2.546,-1.044 v -8.828 h -1.524 v 9.245 c 0,0 1.315,2.108 4.07,2.108 0.793,0 1.586,-0.187 2.233,-0.563 z" /></g><g
           transform="translate(326.9512,39.083)"
           id="g134"><path
             id="path136"
             style="fill:#414142;fill-opacity:1;fill-rule:nonzero;stroke:none"
             d="M 0,0 0.584,1.419 C 1.503,0.939 2.713,0.376 3.84,0.376 c 1.231,0 2.505,0.521 2.505,1.731 0,1.127 -1.483,1.65 -2.693,1.92 -1.732,0.418 -3.485,1.399 -3.485,3.361 0,2.066 1.92,2.984 3.798,2.984 1.148,0 2.692,-0.479 3.298,-0.772 L 6.762,8.243 C 6.323,8.432 4.967,8.891 3.965,8.891 2.505,8.891 1.711,8.223 1.711,7.388 1.711,6.219 2.922,5.739 3.902,5.488 5.593,5.071 7.868,4.361 7.868,2.107 7.868,-0.208 5.781,-1.105 3.84,-1.105 2.087,-1.064 0.835,-0.438 0,0" /></g><g
           transform="translate(343.584,39.4795)"
           id="g138"><path
             id="path140"
             style="fill:#414142;fill-opacity:1;fill-rule:nonzero;stroke:none"
             d="m 0,0 0.522,1.481 c 1.649,-1.001 3.319,-1.523 4.841,-1.523 2.129,0 3.966,0.939 3.966,2.922 0,1.962 -2.504,2.817 -4.216,3.173 -2.567,0.542 -4.925,1.794 -4.925,4.695 0,2.525 2.192,4.132 5.342,4.132 1.711,0 3.778,-0.689 4.508,-0.981 L 9.537,12.438 c -0.563,0.23 -2.379,0.897 -4.007,0.897 -3.005,0 -3.756,-1.689 -3.756,-2.587 0,-1.92 1.941,-2.755 3.589,-3.089 2.505,-0.563 5.51,-1.899 5.552,-4.779 0,-1.043 -0.396,-4.466 -5.552,-4.466 C 3.59,-1.564 1.774,-1.043 0,0" /></g><g
           transform="translate(361.1357,37.9775)"
           id="g142"><path
             id="path144"
             style="fill:#414142;fill-opacity:1;fill-rule:nonzero;stroke:none"
             d="m 0,0 c -3.298,0 -4.654,2.816 -4.654,5.738 0,2.922 1.356,5.74 4.654,5.74 h 0.292 c 1.147,0 2.296,-0.48 3.36,-1.544 L 2.588,8.869 C 1.565,9.871 0.793,9.996 0.292,9.996 H 0 c -2.254,0 -3.13,-2.212 -3.13,-4.258 0,-2.045 0.876,-4.257 3.13,-4.257 h 0.292 c 0.501,0 1.273,0.125 2.296,1.127 L 3.652,1.544 C 2.588,0.479 1.439,0 0.292,0 Z" /></g><g
           transform="translate(367.083,38.1025)"
           id="g146"><path
             id="path148"
             style="fill:#414142;fill-opacity:1;fill-rule:nonzero;stroke:none"
             d="M 0,0 V 16.048 H 1.523 V 9.6 c 0.356,0.668 1.336,1.753 2.922,1.753 3.173,0 4.446,-2.818 4.446,-5.74 V 0 H 7.388 v 5.613 c 0,2.046 -0.751,4.258 -2.943,4.258 -2.191,0 -2.922,-2.212 -2.922,-4.258 L 1.523,0 Z" /></g><g
           transform="translate(385.8447,43.7158)"
           id="g150"><path
             id="path152"
             style="fill:#414142;fill-opacity:1;fill-rule:nonzero;stroke:none"
             d="m 0,0 c 0,2.046 -0.854,4.258 -3.13,4.258 -2.254,0 -3.13,-2.212 -3.13,-4.258 0,-2.045 0.876,-4.257 3.13,-4.257 C -0.854,-4.257 0,-2.045 0,0 m -7.783,0 c 0,2.922 1.355,5.739 4.653,5.739 3.318,0 4.653,-2.817 4.653,-5.739 0,-2.921 -1.335,-5.738 -4.653,-5.738 -3.298,0 -4.653,2.817 -4.653,5.738" /></g><g
           transform="translate(397.2402,43.7158)"
           id="g154"><path
             id="path156"
             style="fill:#414142;fill-opacity:1;fill-rule:nonzero;stroke:none"
             d="m 0,0 c 0,2.046 -0.855,4.258 -3.131,4.258 -2.254,0 -3.13,-2.212 -3.13,-4.258 0,-2.045 0.876,-4.257 3.13,-4.257 C -0.855,-4.257 0,-2.045 0,0 m -7.784,0 c 0,2.922 1.356,5.739 4.653,5.739 3.318,0 4.653,-2.817 4.653,-5.739 0,-2.921 -1.335,-5.738 -4.653,-5.738 -3.297,0 -4.653,2.817 -4.653,5.738" /></g><path
           id="path158"
           style="fill:#414142;fill-opacity:1;fill-rule:nonzero;stroke:none"
           d="M 401.477,54.15 H 403 V 38.101 h -1.523 z" /><g
           transform="translate(252.166,16.0479)"
           id="g160"><path
             id="path162"
             style="fill:#414142;fill-opacity:1;fill-rule:nonzero;stroke:none"
             d="M 0,0 H 1.98 C 4.073,0 5.045,2.03 5.307,3.874 5.556,5.705 5.157,7.735 3.063,7.735 H 1.084 Z M 0.286,8.657 H 3.201 C 5.904,8.657 6.602,6.303 6.265,3.874 5.917,1.433 4.559,-0.922 1.855,-0.922 H -1.06 Z" /></g><g
           transform="translate(262.3672,15.001)"
           id="g164"><path
             id="path166"
             style="fill:#414142;fill-opacity:1;fill-rule:nonzero;stroke:none"
             d="m 0,0 c -2.454,0 -2.853,2.006 -2.565,4.062 l 0.796,5.642 h 0.935 L -1.632,4.062 c -0.223,-1.62 0.087,-3.14 1.757,-3.14 h 0.361 c 1.657,0 2.429,1.52 2.654,3.14 L 3.937,9.704 H 4.871 L 4.073,4.062 C 3.787,2.006 2.815,0 0.361,0 Z" /></g><g
           transform="translate(271.7598,20.5068)"
           id="g168"><path
             id="path170"
             style="fill:#414142;fill-opacity:1;fill-rule:nonzero;stroke:none"
             d="M 0,0 C 0.187,0 1.682,0.05 1.905,1.632 2.117,3.164 0.859,3.276 0.46,3.276 H -2.23 L -2.691,0 Z m -0.623,-4.459 c 0.199,0 1.806,0.062 2.043,1.769 0.236,1.657 -1.121,1.768 -1.545,1.768 h -2.69 L -3.314,-4.459 Z M -3.027,4.198 H 0.598 C 2.217,4.198 3.102,3.264 2.877,1.632 2.74,0.71 2.267,0.013 1.569,-0.423 2.267,-0.884 2.528,-1.731 2.392,-2.69 2.154,-4.397 0.809,-5.381 -0.748,-5.381 h -3.625 z" /></g><g
           transform="translate(280.9268,19.1621)"
           id="g172"><path
             id="path174"
             style="fill:#414142;fill-opacity:1;fill-rule:nonzero;stroke:none"
             d="M 0,0 C -0.224,1.594 -0.485,3.102 -0.771,4.396 -0.81,4.534 -0.909,4.621 -1.059,4.621 H -1.183 C -1.332,4.621 -1.457,4.534 -1.52,4.396 -2.18,3.102 -2.864,1.594 -3.537,0 Z m -3.924,-0.923 c -0.435,-1.02 -0.847,-2.079 -1.232,-3.113 h -0.997 c 0.373,1.058 2.168,5.667 3.848,8.856 0.263,0.487 0.736,0.723 1.259,0.723 h 0.124 C -0.398,5.543 0,5.307 0.112,4.82 0.897,1.631 1.396,-2.978 1.495,-4.036 H 0.499 c -0.112,1.034 -0.236,2.08 -0.361,3.113 z" /></g><g
           transform="translate(285.3857,24.7051)"
           id="g176"><path
             id="path178"
             style="fill:#414142;fill-opacity:1;fill-rule:nonzero;stroke:none"
             d="M 0,0 H 0.935 L -0.411,-9.579 H -1.345 Z" /></g></g></g><g
       id="g180"><g
         clip-path="url(#clipPath186)"
         id="g182"><g
           transform="translate(159.376,25.8691)"
           id="g188"><path
             id="path190"
             style="fill:#0033a1;fill-opacity:1;fill-rule:nonzero;stroke:none"
             d="M 0,0 40.859,-40.861 118.897,37.178 78.04,78.036 Z" /></g><g
           transform="translate(159.9336,25.3115)"
           id="g192"><path
             id="path194"
             style="fill:#b1171e;fill-opacity:1;fill-rule:nonzero;stroke:none"
             d="M 0,0 -42.659,42.657 35.38,120.694 78.037,78.039 Z" /></g></g></g><g
       id="g196"><g
         clip-path="url(#clipPath202)"
         id="g198"><g
           transform="translate(233.6494,99.7124)"
           id="g204"><path
             id="path206"
             style="fill:none;stroke:#898b8e;stroke-width:2.079;stroke-linecap:butt;stroke-linejoin:miter;stroke-miterlimit:10;stroke-dasharray:none;stroke-opacity:1"
             d="m 0,0 h -77.924 -0.05 v -50.568 c 0,-18.452 19.75,-34.049 38.231,-42.49 l 0.803,-0.365 0.009,-0.004 0.807,0.392 c 18.853,9.184 38.139,21.41 38.139,42.467 L 0.015,0 Z" /></g><g
           transform="translate(208.1885,57.5127)"
           id="g208"><path
             id="path210"
             style="fill:#ffffff;fill-opacity:1;fill-rule:nonzero;stroke:none"
             d="m 0,0 c 0,0 -0.904,-1.909 -1.799,-2.004 -0.896,-0.096 -1.389,-0.467 -3.118,0.15 -1.733,0.602 -5.625,-1.479 -5.625,-1.479 0,0 0.317,-2.125 1.819,-3.087 2.292,-1.438 1.848,-2.758 2.839,-2.758 1.86,0 3.457,3.868 4.98,2.356 0.689,-0.702 -0.075,-3.594 -2.492,-4.361 0.403,-0.745 2.768,0.492 1.734,-0.896 -0.303,-0.391 -1.154,-1.444 -2.075,-2.419 -1.122,-1.175 -2.289,-2.058 -1.455,-3.242 0.733,-1.036 3.703,-0.164 5.533,-0.54 2.912,-0.633 1.738,-2.014 2.145,-2.014 0.829,0 0.208,1.829 0.767,1.863 1.312,0.076 0.441,-2.179 0.825,-2.001 1.517,0.694 -0.209,2.692 0.618,2.692 0.828,0 0.828,-1.531 0.828,-1.531 0.534,0 0.458,1.572 -0.477,2.639 -0.969,1.109 -7.266,0.612 -7.266,0.612 0,0 -0.875,1.401 1.861,3.396 2.747,1.981 5.723,2.941 5.199,6.405 -0.701,4.638 -4.637,4.082 -4.637,4.082 z" /></g><g
           transform="translate(187.9697,82.6411)"
           id="g212"><path
             id="path214"
             style="fill:#ffffff;fill-opacity:1;fill-rule:nonzero;stroke:none"
             d="m 0,0 c -0.539,-0.191 -0.556,-1.242 0.065,-1.588 l 1.873,1.035 c 0,0 0,1.243 -1.938,0.553 M -4.72,5.534 C -5.152,5.415 -4.687,3.588 -4.152,3.176 -3.457,2.634 -5.326,2.622 -5.656,0.227 c 0.384,0.163 1.376,1.387 2.625,2.24 1.252,0.85 3.049,1.305 3.059,1.555 0.001,0.259 -1.443,0.259 -2.995,-0.113 -0.32,1.043 -1.385,1.721 -1.753,1.625 m -7.086,-29.295 c 0,0 -1.557,1.623 -0.507,3.761 0.188,0.391 0.837,1.496 3.997,1.496 1.413,0 3.073,-0.953 4.508,-1.917 1.769,-1.179 3.269,-2.602 3.269,-5.272 0,-3.107 -3.131,-4.908 -4.723,-7.916 -1.903,-3.61 -2.342,-6.414 1.246,-7.881 3.061,-1.242 7.264,3.738 7.264,6.379 0,1.732 -2.045,6.166 -0.207,9.007 1.636,2.529 3.553,3.733 4.25,5.532 0.665,1.311 0.322,5.292 -0.584,5.245 -3.787,-5.434 -7.587,-2.943 -7.587,-2.943 0,0 2.178,1.023 1.03,3.146 -0.268,0.508 -3.65,-2.125 -5.355,-0.885 -0.379,0.297 1.66,0.405 1.12,2.098 -0.354,1.128 -5.538,3.178 -4.231,7.57 1.276,-2.42 1.707,-2.42 3.261,-2.42 -1.086,2.121 -1.346,5.325 -0.727,5.555 0.633,0.222 0.845,-1.894 2.346,-2.183 0.492,-0.099 -1.716,2.663 -0.304,4.461 1.169,1.472 2.114,2.361 7.453,2.361 1.741,0 2.933,1.779 3.261,1.302 0.317,-0.482 0.74,-2.86 0.74,-2.86 0,0 -3.841,-1.087 -3.841,-3 0,-0.72 0.664,-1.203 1.522,-1.017 1.425,0.305 2.731,1.748 3.336,1.748 0,-0.995 0.498,-1.321 0,-1.616 -0.504,-0.275 -3.408,0 -3.408,-1.101 0,-2.211 -3.924,-0.602 -3.924,-1.893 0,-0.528 0.91,-1.149 1.99,-1.133 1.526,0.007 3.382,0.815 3.382,0.815 0,0 -1.465,-1.331 -0.973,-2.387 3.055,2.044 7.909,1.709 10.527,1.709 3.323,0 4.504,5.082 3.043,7.307 -2.771,4.218 -7.546,4.692 -7.61,1.656 -0.558,0.21 -0.705,1.018 0.834,2.625 -0.77,0.626 -2.013,-0.799 -2.013,-0.412 0,1.236 2.277,0.9 2.134,1.612 -0.087,0.44 -1.782,0.123 -1.821,0.283 -0.143,0.52 2.105,0.656 3.486,-0.119 0.434,-0.232 1.214,-0.54 1.516,-0.93 2.053,-0.524 4.512,-1.609 6.2,-4.747 2.057,-3.792 1.113,-6.571 0.263,-8.267 -1.625,-3.257 -5.781,-3.22 -7.536,-3.566 -2.684,-0.552 -5.184,-3.005 -4.987,-3.301 2.133,-0.153 6.142,2.743 6.142,0.948 0,-9.118 -8.162,-10.661 -8.162,-13.319 0,-3.575 4.427,-5.941 4.778,-7.944 -0.304,-0.227 -1.277,0.978 -1.514,0.699 -0.228,-0.284 -0.118,-0.714 0.26,-1.193 0.391,-0.48 -0.147,-3.447 -0.335,-3.919 -0.18,-0.487 -0.497,0.947 -1.245,0.947 -0.391,0 0.98,-2.231 -0.55,-4.688 -0.677,-1.105 -2.284,-1.765 -2.605,-2.336 -0.406,-0.719 1.172,-6.438 1.172,-6.438 0,0 -1.105,-0.722 -0.897,-1.066 0.218,-0.35 1.145,0.259 2.388,0.259 0.574,0 4.522,-2.352 4.911,-2.97 0.391,-0.604 0.52,-2.106 0.136,-2.106 -0.38,0 0.248,1.04 -0.745,1.04 -0.32,0 0.519,-2.117 -1.539,-1.833 0.563,0.695 0.547,1.518 0.14,1.601 -0.411,0.068 -0.997,-1.49 -1.383,-1.147 -0.28,0.241 1.489,1.841 -1.469,2.832 -1.435,0.469 -5.604,0.254 -5.604,0.254 l -0.105,1.239 c 0,0 0.89,1.446 1.972,2.702 -0.361,0.251 -1.61,-0.318 -1.61,-0.318 0,0 0.625,2.642 0.248,5.228 -0.139,0.925 -0.195,2.225 -0.195,2.225 0,0 2.375,1.753 2.375,3.853 0,1.561 -1.135,3.654 -1.975,3.654 -0.309,0 0.047,-0.83 -0.934,-1.905 -1.674,-1.819 -5.194,-4.228 -7.762,-3.375 -2.803,0.932 -4.448,2.955 -3.947,5.754 1.055,5.888 6.539,8.603 6.539,12.27 0,1.759 -2.923,3.718 -3.581,3.718 -0.655,0.005 -1.191,-0.939 0.518,-2.539 -1.397,-0.511 -3.271,2.089 -3.572,2.089 -0.309,0 -0.157,-2.552 1.132,-3.217 -4.355,0 -2.957,3.444 -3.592,3.444 -1.242,0 -0.883,-2.269 -0.883,-2.269 z" /></g></g></g></g></svg>